<?xml version="1.0" encoding="utf-8"?>
<!-- Generator: Adobe Illustrator 16.0.3, SVG Export Plug-In . SVG Version: 6.00 Build 0)  -->
<!DOCTYPE svg PUBLIC "-//W3C//DTD SVG 1.1//EN" "http://www.w3.org/Graphics/SVG/1.1/DTD/svg11.dtd">
<svg version="1.1" id="logo" xmlns="http://www.w3.org/2000/svg" xmlns:xlink="http://www.w3.org/1999/xlink" x="0px" y="0px"
	 width="113.386px" height="56.693px" viewBox="0 0 113.386 56.693" enable-background="new 0 0 113.386 56.693"
	 xml:space="preserve">
<g>
	<path fill="#009770" d="M59.271,51.126v-9.673c0-3.571-2.986-6.099-6.621-6.099c-1.818,0-3.604,0.646-4.867,1.91
		c-1.264-1.264-3.05-1.91-4.867-1.91c-3.635,0-6.623,2.527-6.623,6.099v9.673h6.161v-7.979c0-1.817,0.462-2.248,1.108-2.248
		c0.647,0,1.14,0.431,1.14,2.248v7.979h6.161v-7.979c0-1.817,0.492-2.248,1.14-2.248s1.109,0.431,1.109,2.248v7.979H59.271z"/>
	<path fill="#009770" d="M69.491,51.495c4.373,0,7.978-3.326,7.978-8.255c0-4.437-2.958-7.886-7.516-7.886
		c-0.801,0-1.448,0.031-2.096,0.123v6.068c0.493-0.185,0.986-0.339,1.51-0.339c1.079,0,2.249,0.832,2.249,2.218
		c0,1.355-0.985,2.217-2.156,2.217c-1.294,0-2.28-0.861-2.28-2.709V29.595h-6.16V41.7C61.02,48.63,64.901,51.495,69.491,51.495z"/>
	<path fill="#009770" d="M86.422,51.496c4.804,0,7.269-2.957,7.269-6.531v-9.241h-6.16v8.287c0,1.355-0.34,1.817-1.109,1.817
		c-0.771,0-1.109-0.462-1.109-1.817v-8.287h-6.161v9.241C79.151,48.539,81.616,51.496,86.422,51.496z"/>
	<path fill="#009770" d="M106.928,46.845c0-4.313-4.65-4.652-4.65-5.761c0-0.247,0.308-0.431,0.555-0.431h3.573v-4.93h-6.377
		c-2.402,0-4.836,1.51-4.836,4.098c0,4.312,4.836,4.312,4.836,5.545c0,0.339-0.216,0.585-1.201,0.585h-3.696v5.175h6.376
		C104.958,51.126,106.928,49.556,106.928,46.845z"/>
	<path fill="#009770" d="M27.521,32.583c0,1.883,1.554,3.416,3.464,3.416c1.911,0,3.466-1.533,3.466-3.416
		c0-1.884-1.555-3.416-3.466-3.416C29.075,29.167,27.521,30.699,27.521,32.583z"/>
	<path fill="#009770" d="M34.406,35.284l-0.271,0.271c-0.83,0.828-1.933,1.285-3.104,1.285c-1.154,0-2.243-0.443-3.066-1.248
		l-0.271-0.266v15.881h6.769L34.406,35.284z"/>
	
		<rect x="29.597" y="5.231" transform="matrix(0.7071 0.7071 -0.7071 0.7071 13.8675 -20.0245)" fill="#009770" width="3.018" height="2.992"/>
	<path fill="#009770" d="M27.091,53.728L3.835,30.802c-0.004-0.004-0.416-0.373-0.435-0.873c-0.012-0.316,0.142-0.635,0.455-0.948
		C5.313,27.522,29.576,3.419,29.6,3.395c0.003-0.004,0.356-0.407,0.839-0.427c0.308-0.009,0.625,0.139,0.937,0.451
		C32.956,4.999,56.938,28.98,56.958,29c0.002,0.001,0.182,0.163,0.188,0.377c0.005,0.155-0.082,0.323-0.258,0.499l0.541,0.541
		c0.337-0.336,0.498-0.699,0.481-1.078c-0.023-0.545-0.413-0.886-0.433-0.9c0,0-23.981-23.982-25.563-25.562
		c-0.469-0.47-0.985-0.697-1.51-0.674c-0.822,0.035-1.369,0.671-1.369,0.674c0,0-24.265,24.104-25.723,25.563
		c-0.471,0.471-0.699,0.98-0.68,1.519c0.03,0.837,0.673,1.4,0.682,1.407l23.46,23.129h83.976v-0.766H27.091z"/>
</g>
</svg>
